<?xml version="1.0" encoding="UTF-8" standalone="no"?>
<svg
   width="268.33862mm"
   height="117.06406mm"
   inkscape:version="1.2.2 (b0a8486541, 2022-12-01)"
   sodipodi:docname="logo.svg"
   version="1.1"
   viewBox="0 0 268.33863 117.06406"
   id="svg11"
   xmlns:inkscape="http://www.inkscape.org/namespaces/inkscape"
   xmlns:sodipodi="http://sodipodi.sourceforge.net/DTD/sodipodi-0.dtd"
   xmlns="http://www.w3.org/2000/svg"
   xmlns:svg="http://www.w3.org/2000/svg"
   xmlns:rdf="http://www.w3.org/1999/02/22-rdf-syntax-ns#"
   xmlns:cc="http://creativecommons.org/ns#"
   xmlns:dc="http://purl.org/dc/elements/1.1/">
  <defs
     id="defs13" />
  <sodipodi:namedview
     id="cvfa"
     bordercolor="#666666"
     borderopacity="1.0"
     fit-margin-bottom="0"
     fit-margin-left="0"
     fit-margin-right="0"
     fit-margin-top="0"
     inkscape:current-layer="g9"
     inkscape:cx="212.13203"
     inkscape:cy="665.69052"
     inkscape:document-rotation="0"
     inkscape:document-units="mm"
     inkscape:pageopacity="0.0"
     inkscape:pageshadow="2"
     inkscape:window-height="1129"
     inkscape:window-maximized="1"
     inkscape:window-width="1854"
     inkscape:window-x="66"
     inkscape:window-y="32"
     inkscape:zoom="0.49497475"
     pagecolor="#ffffff"
     showgrid="false"
     inkscape:showpageshadow="2"
     inkscape:pagecheckerboard="0"
     inkscape:deskcolor="#d1d1d1" />
  <title
     id="title3">Apache Parquet logo</title>
  <metadata
     id="metadata5">
    <rdf:RDF>
      <cc:Work
         rdf:about="">
        <dc:format>image/svg+xml</dc:format>
        <dc:type
           rdf:resource="http://purl.org/dc/dcmitype/StillImage" />
        <dc:title>Apache Parquet logo</dc:title>
      </cc:Work>
    </rdf:RDF>
  </metadata>
  <g
     transform="translate(245.74034,148.57869)"
     inkscape:groupmode="layer"
     inkscape:label="Layer 1"
     id="g9">
    <g
       id="g1063">
      <rect
         style="opacity:1;fill:#ffffff;fill-opacity:1;stroke:none;stroke-width:4.97362;stroke-linecap:round"
         id="rect348"
         width="268.33862"
         height="117.06406"
         x="-245.74034"
         y="-148.57869"
         rx="0.61777127"
         ry="0.42605695" />
      <path
         d="m -202.46623,-68.373192 c -2.452,-2.616 -2.525,-2.729 -2.084,-3.224 0.6986,-0.784 30.5,-28.06 30.92,-28.31 0.3701,-0.213698 4.023,1.55 4.822,2.328 0.306,0.2982 -2.068,2.836 -15.02,16.05 -8.461,8.635 -15.55,15.74 -15.74,15.78 -0.1966,0.0435 -1.501,-1.141 -2.898,-2.632 z m 131.700003,-0.2703 c -0.2337,-0.2337 -0.3254,-1.689 -0.3254,-5.167 0,-2.663 -0.07009,-4.842 -0.1557,-4.842 -0.08566,0 -0.7676,0.5352 -1.515,1.189 -1.782,1.559 -3.341,2.068 -5.954,1.943 -5.82,-0.2792 -9.299,-5.311 -9.299,-13.45 0,-5.085 1.201,-8.606 3.763,-11.029998 2.68,-2.535 6.454,-3.206 9.589,-1.704 0.8731,0.4182 1.937,1.132 2.365,1.587 0.4274,0.454798 0.8674,0.826998 0.9777,0.826998 0.1103,0 0.2369,-0.5656 0.2812,-1.256998 l 0.08064,-1.257 6.751,-0.1482 -0.06812,16.739998 -0.06812,16.74 -3.048,0.074 c -2.146,0.0521 -3.144,-0.0223 -3.373,-0.2514 z m -3.183,-13.35 c 3.749,-1.915 4.09,-10.82 0.5182,-13.55 -1.3,-0.9916 -3.543,-1.114 -4.798,-0.2607 -1.847,1.255 -2.917,3.747 -2.917,6.795 0,5.568 3.449,8.93 7.196,7.015 z m -135.200003,6.669 c -1.322,-1.329 -2.158,-2.373 -2.074,-2.59 0.1507,-0.3927 17.28,-14.24 17.6,-14.23 0.3948,0.0148 4.426,3.078 4.426,3.363 0,0.3001 -17.22,15.68 -17.56,15.68 -0.1002,0 -1.178,-1.002 -2.396,-2.226 z m 185.800003,-0.2922 c -2.262,-0.4913 -4.026,-1.513 -5.769,-3.341 -2.448,-2.566 -3.561,-5.687 -3.554,-9.963 0.0099,-5.844 2.512,-10.43 6.863,-12.569998 1.621,-0.7979 1.891,-0.8472 4.637,-0.8472 2.612,0 3.074,0.0741 4.434,0.7112 4.142,1.940998 6.703,7.041998 6.497,12.939998 l -0.07747,2.222 -7.532,0.0704 c -4.142,0.0387 -7.634,0.1732 -7.76,0.2989 -0.3689,0.3689 0.8585,2.871 1.824,3.719 2.11,1.852 5.104,1.735 7.955,-0.311 l 1.208,-0.8671 1.046,1.191 c 0.5755,0.6548 1.362,1.594 1.749,2.087 l 0.7022,0.8963 -1.184,1.06 c -2.088,1.87 -5.492,3.134 -8.297,3.079 -0.5986,-0.0116 -1.832,-0.1826 -2.742,-0.3802 z m 6.097,-15.54 c 0.4042,-0.3011 0.4099,-0.459 0.06372,-1.761 -0.9375,-3.525 -4.145,-5.002 -6.52,-3.003 -0.9373,0.7887 -1.422,1.671 -1.848,3.362 -0.2619,1.04 -0.2529,1.298 0.05227,1.491 0.5946,0.3765 7.731,0.2995 8.252,-0.089 z m -109.200003,15.31 c -3.521,-1.31 -5.46,-5.213 -4.693,-9.444 0.5345,-2.948 1.853,-4.714 4.363,-5.843 1.787,-0.8043 6.015,-1.005 8.142,-0.3865 0.8052,0.2341 1.522,0.4256 1.593,0.4256 0.3445,0 0.426,-0.9625 0.1649,-1.947 -0.3271,-1.233 -1.055,-2.135 -2.228,-2.76 -1.188,-0.633 -4.155,-0.5395 -6.467,0.2038 -1.088,0.3498 -1.986,0.5092 -2.105,0.3737 -0.2938,-0.3341 -1.614,-4.199 -1.614,-4.725 0,-1.005998 4.594,-2.282998 8.32,-2.313998 4.398,-0.036 7.26,1.056 9.006,3.434998 1.811,2.469 1.856,2.795 1.856,13.42 v 9.525 l -3.02,0.0752 c -1.661,0.0414 -3.126,-0.0306 -3.256,-0.1599 -0.1293,-0.1293 -0.2846,-0.6259 -0.345,-1.104 -0.0604,-0.4776 -0.169,-0.9275 -0.2413,-0.9998 -0.0723,-0.0723 -0.5537,0.2394 -1.07,0.6926 -1.614,1.417 -2.455,1.72 -5.032,1.813 -1.583,0.0571 -2.714,-0.0379 -3.374,-0.2834 z m 7.844,-5.264 c 1.373,-0.787 2.012,-2.042 2.012,-3.951 0,-1.889 -0.3313,-2.116 -3.307,-2.269 -1.894,-0.0976 -2.214,-0.0429 -3.039,0.5192 -1.265,0.8619 -1.633,1.668 -1.515,3.32 0.1531,2.147 1.086,2.937 3.495,2.96 0.9028,0.008 1.65,-0.1753 2.354,-0.5785 z m 64.760003,5.291 c -1.46,-0.4673 -3.378,-2.404 -4.065,-4.107 -0.6,-1.486 -0.6098,-1.675 -0.6101,-11.7 l -2.65e-4,-10.189998 6.72,-0.1479 0.07942,8.804998 c 0.07064,7.832 0.1312,8.9 0.5479,9.663 1.381,2.528 4.998,2.508 6.358,-0.0339 0.5601,-1.047 0.5853,-1.416 0.6675,-9.761 l 0.08543,-8.672998 6.708,0.1478 0.06873,12.669998 c 0.05043,9.296 -0.01281,12.77 -0.2375,13.04 -0.2367,0.2852 -1.003,0.3522 -3.376,0.2948 l -3.07,-0.0742 -0.08285,-1.191 c -0.04557,-0.6548 -0.1822,-1.292 -0.3037,-1.415 -0.1215,-0.1234 -0.739,0.2811 -1.372,0.8989 -1.66,1.62 -2.869,2.096 -5.253,2.071 -1.091,-0.0117 -2.381,-0.148 -2.865,-0.3029 z m 53.33999909,0.0843 c -1.56499999,-0.4973 -2.55599999,-1.36 -3.29799999,-2.871 l -0.7404,-1.508 -0.1732,-16.01 h -1.006 c -1.456,0 -1.6320005,-0.3653 -1.544,-3.214 0.07474,-2.418998 0.09103,-2.475998 0.7379,-2.547998 1.959,-0.2193 1.852,-0.0284 1.852,-3.318 0,-1.969 0.1081,-3.093 0.3175,-3.302 0.4503,-0.4503 6.187,-0.4386 6.48,0.0132 0.1177,0.1819 0.2736,1.7 0.3464,3.373 l 0.1323,3.043 4.912,0.1524 -0.075,2.833998 -0.075,2.834 -4.895,0.1522 v 6.737 c 0,8.484 -0.174,8.186 4.366,7.481 0.4945,-0.0769 0.5341,0.0873 0.605,2.508 l 0.0759,2.59 -1.266,0.5781 c -1.382,0.631 -5.37500001,0.9102 -6.75300001,0.4723 z m -156.70000209,-0.3357 c -0.0713,-0.1864 -0.0987,-7.899 -0.061,-17.14 l 0.0686,-16.799998 7.144,0.0157 c 6.697,0.0147 7.251,0.0529 8.864,0.6103 4.704,1.626 7.274,5.082 7.603,10.219998 0.3358,5.249 -2.046,9.556 -6.359,11.5 -2.249,1.013 -3.97,1.333 -7.178,1.333 -1.945,0 -2.817,0.101 -3.024,0.3504 -0.1819,0.2192 -0.3179,2.177 -0.3631,5.226 l -0.0723,4.875 -3.246,0.0743 c -2.45,0.0561 -3.278,-0.009 -3.376,-0.2646 z m 13.5,-17.11 c 1.953,-0.9012 3.052,-2.708 3.031,-4.982 -0.0336,-3.663998 -1.849,-5.263998 -6.301,-5.552998 -3.639,-0.2358 -3.477,-0.4854 -3.477,5.332998 0,2.675 0.0723,5.052 0.1606,5.282 0.2476,0.6453 5.143,0.5847 6.586,-0.0816 z m 39.32,17.07 c -0.216,-0.2602 -0.2804,-3.896 -0.2308,-13.03 l 0.0687,-12.669998 3.286,-0.0747 c 2.450999,-0.0557 3.340999,0.0115 3.501999,0.2646 0.1184,0.1866 0.2171,0.9643 0.2193,1.727998 0.004,1.36 0.350504,1.852 0.646604,0.9194 0.2075,-0.6538 1.943,-2.395998 2.859,-2.869998 0.4183,-0.2163 1.35,-0.4631 2.069,-0.5483 l 1.309,-0.155 v 7.435998 l -1.124,0.1872 c -1.871,0.3115 -3.073,0.9242 -4.047,2.062 -1.514004,1.768 -1.708004,2.894 -1.708004,9.902 0,3.759 -0.1075,6.388 -0.2739,6.699 -0.2461,0.4598 -0.5787,0.5118 -3.274999,0.5118 -2.212,0 -3.08,-0.0949 -3.301,-0.361 z m -111,-5.603 c -1.035,-1.156 -1.685,-2.09 -1.545,-2.22 0.7219,-0.6739 8.17,-5.839 8.416,-5.836 0.4004,0.005 3.995,3.087 3.995,3.426 0,0.4162 -8.066,6.625 -8.607,6.625 -0.2605,0 -1.277,-0.8978 -2.259,-1.995 z m -5.133,-5.268 c -1.482,-1.499 -1.659,-1.779 -1.323,-2.091 0.4823,-0.4481 24.16,-15.729998 24.64,-15.909998 0.3788,-0.1375 3.658,1.848 3.658,2.215 0,0.2622 -24.27,17.259998 -24.86,17.409998 -0.2346,0.0602 -1.122,-0.6222 -2.115,-1.627 z m 15.79,-2.414 c -0.9775,-0.8114 -1.772,-1.615 -1.766,-1.786 0.006,-0.1709 0.8697,-0.9136 1.918,-1.651 1.049,-0.7369 5.75,-4.1 10.45,-7.473998 4.697,-3.374 8.734,-6.135 8.97,-6.135 0.6322,0 3.833,1.85 3.73,2.157 -0.1484,0.4452 -20.69,16.359998 -21.12,16.359998 -0.223,0.002 -1.205,-0.6605 -2.183,-1.472 z m -20.56,-2.383 c -1.167,-1.234 -1.336,-1.532 -1.031,-1.81 0.2644,-0.241 14.93,-8.903998 16.7,-9.865998 0.293,-0.159 3.402,2.084 3.303,2.382 -0.1286,0.3859 -16.67,10.769998 -17.16,10.769998 -0.2336,2.1e-4 -1.053,-0.6641 -1.821,-1.476 z m 35.46,0.0987 c -1.073,-0.7701 -1.993,-1.525 -2.044,-1.677 -0.0722,-0.2172 9.657,-8.302998 11.86,-9.859998 0.4291,-0.3027 0.7666,-0.2019 2.607,0.7786 1.163,0.6195 2.112,1.252 2.11,1.406 -0.005,0.3937 -11.59,10.579998 -12.13,10.679998 -0.2479,0.0425 -1.329,-0.5528 -2.403,-1.323 z m -39.41,-4.284 -1.411,-1.429 0.6263,-0.4059 c 0.3445,-0.2232 7.337,-4.036998 15.54,-8.475998 l 14.91,-8.07 1.426,0.6993 c 0.7843,0.3846 1.426,0.8296 1.426,0.9888 0,0.2179 -30.66,18.119998 -31.03,18.119998 -0.0407,0 -0.709,-0.643 -1.485,-1.429 z m 22.93,-7.203998 c -0.6912,-0.5188 -1.256,-1.081 -1.255,-1.249 7.9e-4,-0.168 2.796,-1.951 6.211,-3.963 l 6.209,-3.657 1.594,0.8497 c 0.8768,0.4674 1.594,0.94 1.594,1.05 0,0.3137 -12.18,7.929 -12.66,7.92 -0.2387,-0.004 -0.9996,-0.4325 -1.691,-0.9514 z m 12.44,-1.582 c -0.8367,-0.5171 -1.519,-1.079 -1.516,-1.25 0.005,-0.2884 4.234,-3.121 4.928,-3.301 0.319,-0.0826 3.165,1.419 3.395,1.791 0.0693,0.1122 -0.0795,0.387 -0.3307,0.6107 -0.8593,0.765 -4.387,3.104 -4.671,3.097 -0.156,-0.004 -0.9682,-0.4302 -1.805,-0.9473 z"
         style="fill:#50abf1;stroke-width:0.2646"
         inkscape:connector-curvature="0"
         id="path7" />
    </g>
  </g>
</svg>
